<svg width="105" height="90" viewBox="0 0 105 90" fill="none" xmlns="http://www.w3.org/2000/svg">
<g id="&#208;&#187;&#208;&#190;&#208;&#179;&#208;&#190;&#209;&#130;&#208;&#184;&#208;&#191;">
<g id="logo">
<path id="bar" d="M48.6334 17.792C48.6334 19.9333 48.2483 21.5456 47.4782 22.6289C46.708 23.7122 45.5908 24.2539 44.1266 24.2539C42.6709 24.2539 41.5791 23.6276 40.8512 22.375L40.737 24H38.693V4.5H40.9274V11.7744C41.6637 10.598 42.7217 10.0098 44.1012 10.0098C45.6077 10.0098 46.7376 10.543 47.4909 11.6094C48.2441 12.6758 48.625 14.2839 48.6334 16.4336V17.792ZM46.3991 16.5098C46.3991 14.8848 46.1705 13.7295 45.7135 13.0439C45.2649 12.3499 44.5329 12.0029 43.5172 12.0029C42.3577 12.0029 41.4944 12.6292 40.9274 13.8818V20.4199C41.486 21.6556 42.3577 22.2734 43.5426 22.2734C44.5582 22.2734 45.2861 21.918 45.7262 21.207C46.1663 20.4961 46.3906 19.3916 46.3991 17.8936V16.5098ZM58.9639 24C58.8285 23.7038 58.7311 23.2044 58.6719 22.502C57.8763 23.6699 56.8607 24.2539 55.625 24.2539C54.3809 24.2539 53.4076 23.9069 52.7051 23.2129C52.0111 22.5104 51.6641 21.5244 51.6641 20.2549C51.6641 18.8584 52.138 17.7497 53.0859 16.9287C54.0339 16.1077 55.333 15.6888 56.9834 15.6719H58.6338V14.2119C58.6338 13.391 58.4518 12.807 58.0879 12.46C57.724 12.113 57.1696 11.9395 56.4248 11.9395C55.7477 11.9395 55.1976 12.1426 54.7744 12.5488C54.3512 12.9466 54.1396 13.4544 54.1396 14.0723H51.8926C51.8926 13.3698 52.0999 12.7012 52.5146 12.0664C52.9294 11.4232 53.488 10.9196 54.1904 10.5557C54.8929 10.1917 55.6758 10.0098 56.5391 10.0098C57.944 10.0098 59.0104 10.361 59.7383 11.0635C60.4746 11.7575 60.8512 12.7731 60.8682 14.1104V21.042C60.8766 22.0999 61.0205 23.0182 61.2998 23.7969V24H58.9639ZM55.9678 22.21C56.5179 22.21 57.0426 22.0576 57.542 21.7529C58.0413 21.4482 58.4053 21.0674 58.6338 20.6104V17.335H57.3643C56.2979 17.3519 55.4557 17.5931 54.8379 18.0586C54.2201 18.5156 53.9111 19.1589 53.9111 19.9883C53.9111 20.7669 54.0677 21.334 54.3809 21.6895C54.694 22.0365 55.223 22.21 55.9678 22.21ZM70.4242 12.3711C70.111 12.3118 69.7725 12.2822 69.4086 12.2822C68.2575 12.2822 67.4535 12.9128 66.9964 14.1738V24H64.7494V10.2637H66.933L66.9711 11.6602C67.572 10.5599 68.4226 10.0098 69.5228 10.0098C69.8783 10.0098 70.1745 10.069 70.4115 10.1875L70.4242 12.3711Z" fill="#FDB92D" fill-opacity="0.58"/>
<path id="3856" d="M27.4944 52.2188H29.26C30.3954 52.2188 31.2704 51.8698 31.885 51.1719C32.4996 50.474 32.8069 49.5208 32.8069 48.3125C32.8069 45.6458 31.7756 44.3125 29.7131 44.3125C28.7235 44.3125 27.9475 44.6719 27.385 45.3906C26.8225 46.1094 26.5413 47.0521 26.5413 48.2188H23.7913C23.7913 46.3958 24.3433 44.8958 25.4475 43.7188C26.5621 42.5312 27.984 41.9375 29.7131 41.9375C31.5048 41.9375 32.9267 42.5 33.9788 43.625C35.0308 44.7396 35.5569 46.3229 35.5569 48.375C35.5569 49.4271 35.2808 50.4115 34.7288 51.3281C34.1871 52.2344 33.4788 52.901 32.6038 53.3281C34.7496 54.1198 35.8225 55.8958 35.8225 58.6562C35.8225 60.6875 35.2548 62.3073 34.1194 63.5156C32.9944 64.7135 31.5204 65.3125 29.6975 65.3125C27.8954 65.3125 26.4371 64.7448 25.3225 63.6094C24.2183 62.4635 23.6663 60.9271 23.6663 59H26.4319C26.4319 60.2083 26.7235 61.1719 27.3069 61.8906C27.8902 62.599 28.6871 62.9531 29.6975 62.9531C30.7288 62.9531 31.5465 62.6042 32.1506 61.9062C32.7652 61.2083 33.0725 60.1458 33.0725 58.7188C33.0725 55.9583 31.7652 54.5781 29.1506 54.5781H27.4944V52.2188ZM51.6388 48.1875C51.6388 49.3229 51.3835 50.3333 50.8731 51.2188C50.3731 52.1042 49.696 52.7969 48.8419 53.2969C49.8523 53.8177 50.644 54.5677 51.2169 55.5469C51.7898 56.5156 52.0763 57.6198 52.0763 58.8594C52.0763 60.8177 51.519 62.3854 50.4044 63.5625C49.3002 64.7292 47.8315 65.3125 45.9981 65.3125C44.1648 65.3125 42.6908 64.7292 41.5763 63.5625C40.4721 62.3854 39.92 60.8177 39.92 58.8594C39.92 57.6094 40.2013 56.4948 40.7638 55.5156C41.3367 54.526 42.1127 53.7812 43.0919 53.2812C42.2377 52.7812 41.5658 52.0938 41.0763 51.2188C40.5867 50.3333 40.3419 49.3229 40.3419 48.1875C40.3419 46.2708 40.8575 44.75 41.8888 43.625C42.9304 42.5 44.3002 41.9375 45.9981 41.9375C47.6856 41.9375 49.045 42.4948 50.0763 43.6094C51.1179 44.724 51.6388 46.25 51.6388 48.1875ZM49.3106 58.7969C49.3106 57.4948 49.0033 56.4531 48.3888 55.6719C47.7742 54.8802 46.9669 54.4844 45.9669 54.4844C44.946 54.4844 44.1388 54.8802 43.545 55.6719C42.9617 56.4635 42.67 57.5052 42.67 58.7969C42.67 60.1094 42.9565 61.1302 43.5294 61.8594C44.1127 62.5885 44.9356 62.9531 45.9981 62.9531C47.0606 62.9531 47.8783 62.5885 48.4513 61.8594C49.0242 61.1302 49.3106 60.1094 49.3106 58.7969ZM48.8888 48.2344C48.8888 47.0781 48.6179 46.1354 48.0763 45.4062C47.5346 44.6771 46.8419 44.3125 45.9981 44.3125C45.1127 44.3125 44.4096 44.6719 43.8888 45.3906C43.3679 46.1094 43.1075 47.0573 43.1075 48.2344C43.1075 49.4219 43.3731 50.3646 43.9044 51.0625C44.4356 51.7604 45.1335 52.1094 45.9981 52.1094C46.8835 52.1094 47.5867 51.7552 48.1075 51.0469C48.6283 50.3385 48.8888 49.401 48.8888 48.2344ZM57.0331 53.5938L58.0175 42.25H67.9081V44.9219H60.3456L59.8144 51.125C60.7519 50.4688 61.7623 50.1406 62.8456 50.1406C64.6165 50.1406 66.0071 50.8281 67.0175 52.2031C68.0279 53.5781 68.5331 55.4271 68.5331 57.75C68.5331 60.1042 67.981 61.9531 66.8769 63.2969C65.7831 64.6406 64.2779 65.3125 62.3613 65.3125C60.6529 65.3125 59.2623 64.7552 58.1894 63.6406C57.1165 62.526 56.5019 60.9844 56.3456 59.0156H58.9394C59.0956 60.3177 59.4654 61.3021 60.0488 61.9688C60.6425 62.625 61.4133 62.9531 62.3613 62.9531C63.4342 62.9531 64.2727 62.4896 64.8769 61.5625C65.481 60.625 65.7831 59.3646 65.7831 57.7812C65.7831 56.2917 65.455 55.0781 64.7988 54.1406C64.1529 53.2031 63.2779 52.7344 62.1738 52.7344C61.2571 52.7344 60.5227 52.974 59.9706 53.4531L59.2363 54.1875L57.0331 53.5938ZM81.5056 42.2344V44.6875H81.0525C79.2087 44.7292 77.766 45.3542 76.7244 46.5625C75.6827 47.7604 75.0837 49.5677 74.9275 51.9844C75.9379 50.7135 77.2296 50.0781 78.8025 50.0781C80.4796 50.0781 81.8077 50.7708 82.7869 52.1562C83.7765 53.5312 84.2712 55.3385 84.2712 57.5781C84.2712 59.9635 83.7244 61.849 82.6306 63.2344C81.5473 64.6198 80.089 65.3125 78.2556 65.3125C76.4119 65.3125 74.9275 64.4948 73.8025 62.8594C72.6775 61.224 72.115 59.0521 72.115 56.3438V55.2344C72.115 52.1094 72.4535 49.6198 73.1306 47.7656C73.8077 45.9115 74.8025 44.5365 76.115 43.6406C77.4379 42.7344 79.0785 42.2656 81.0369 42.2344H81.5056ZM78.3337 52.4844C77.5837 52.4844 76.891 52.7708 76.2556 53.3438C75.6202 53.9167 75.1619 54.6458 74.8806 55.5312V56.6719C74.8806 58.5156 75.2035 60.0208 75.8494 61.1875C76.5056 62.3438 77.3077 62.9219 78.2556 62.9219C79.2869 62.9219 80.0942 62.4479 80.6775 61.5C81.2608 60.5417 81.5525 59.2812 81.5525 57.7188C81.5525 56.1771 81.2608 54.9219 80.6775 53.9531C80.0942 52.974 79.3129 52.4844 78.3337 52.4844Z" fill="#FDB92D" fill-opacity="0.58"/>
<path id="Rectangle 1" d="M79 15.1892H104V82.7568H4V15.1892H29" stroke="#FDB92D" stroke-opacity="0.58" stroke-width="2"/>
</g>
<g id="logo_2">
<path id="bar_2" d="M45.6334 23.792C45.6334 25.9333 45.2483 27.5456 44.4782 28.6289C43.708 29.7122 42.5908 30.2539 41.1266 30.2539C39.6709 30.2539 38.5791 29.6276 37.8512 28.375L37.737 30H35.693V10.5H37.9274V17.7744C38.6637 16.598 39.7217 16.0098 41.1012 16.0098C42.6077 16.0098 43.7376 16.543 44.4909 17.6094C45.2441 18.6758 45.625 20.2839 45.6334 22.4336V23.792ZM43.3991 22.5098C43.3991 20.8848 43.1705 19.7295 42.7135 19.0439C42.2649 18.3499 41.5329 18.0029 40.5172 18.0029C39.3577 18.0029 38.4944 18.6292 37.9274 19.8818V26.4199C38.486 27.6556 39.3577 28.2734 40.5426 28.2734C41.5582 28.2734 42.2861 27.918 42.7262 27.207C43.1663 26.4961 43.3906 25.3916 43.3991 23.8936V22.5098ZM55.9639 30C55.8285 29.7038 55.7311 29.2044 55.6719 28.502C54.8763 29.6699 53.8607 30.2539 52.625 30.2539C51.3809 30.2539 50.4076 29.9069 49.7051 29.2129C49.0111 28.5104 48.6641 27.5244 48.6641 26.2549C48.6641 24.8584 49.138 23.7497 50.0859 22.9287C51.0339 22.1077 52.333 21.6888 53.9834 21.6719H55.6338V20.2119C55.6338 19.391 55.4518 18.807 55.0879 18.46C54.724 18.113 54.1696 17.9395 53.4248 17.9395C52.7477 17.9395 52.1976 18.1426 51.7744 18.5488C51.3512 18.9466 51.1396 19.4544 51.1396 20.0723H48.8926C48.8926 19.3698 49.0999 18.7012 49.5146 18.0664C49.9294 17.4232 50.488 16.9196 51.1904 16.5557C51.8929 16.1917 52.6758 16.0098 53.5391 16.0098C54.944 16.0098 56.0104 16.361 56.7383 17.0635C57.4746 17.7575 57.8512 18.7731 57.8682 20.1104V27.042C57.8766 28.0999 58.0205 29.0182 58.2998 29.7969V30H55.9639ZM52.9678 28.21C53.5179 28.21 54.0426 28.0576 54.542 27.7529C55.0413 27.4482 55.4053 27.0674 55.6338 26.6104V23.335H54.3643C53.2979 23.3519 52.4557 23.5931 51.8379 24.0586C51.2201 24.5156 50.9111 25.1589 50.9111 25.9883C50.9111 26.7669 51.0677 27.334 51.3809 27.6895C51.694 28.0365 52.223 28.21 52.9678 28.21ZM67.4242 18.3711C67.111 18.3118 66.7725 18.2822 66.4086 18.2822C65.2575 18.2822 64.4535 18.9128 63.9964 20.1738V30H61.7494V16.2637H63.933L63.9711 17.6602C64.572 16.5599 65.4226 16.0098 66.5228 16.0098C66.8783 16.0098 67.1745 16.069 67.4115 16.1875L67.4242 18.3711Z" fill="#262121"/>
<path id="3856_2" d="M24.4944 58.2188H26.26C27.3954 58.2188 28.2704 57.8698 28.885 57.1719C29.4996 56.474 29.8069 55.5208 29.8069 54.3125C29.8069 51.6458 28.7756 50.3125 26.7131 50.3125C25.7235 50.3125 24.9475 50.6719 24.385 51.3906C23.8225 52.1094 23.5413 53.0521 23.5413 54.2188H20.7913C20.7913 52.3958 21.3433 50.8958 22.4475 49.7188C23.5621 48.5312 24.984 47.9375 26.7131 47.9375C28.5048 47.9375 29.9267 48.5 30.9788 49.625C32.0308 50.7396 32.5569 52.3229 32.5569 54.375C32.5569 55.4271 32.2808 56.4115 31.7288 57.3281C31.1871 58.2344 30.4788 58.901 29.6038 59.3281C31.7496 60.1198 32.8225 61.8958 32.8225 64.6562C32.8225 66.6875 32.2548 68.3073 31.1194 69.5156C29.9944 70.7135 28.5204 71.3125 26.6975 71.3125C24.8954 71.3125 23.4371 70.7448 22.3225 69.6094C21.2183 68.4635 20.6663 66.9271 20.6663 65H23.4319C23.4319 66.2083 23.7235 67.1719 24.3069 67.8906C24.8902 68.599 25.6871 68.9531 26.6975 68.9531C27.7288 68.9531 28.5465 68.6042 29.1506 67.9062C29.7652 67.2083 30.0725 66.1458 30.0725 64.7188C30.0725 61.9583 28.7652 60.5781 26.1506 60.5781H24.4944V58.2188ZM48.6388 54.1875C48.6388 55.3229 48.3835 56.3333 47.8731 57.2188C47.3731 58.1042 46.696 58.7969 45.8419 59.2969C46.8523 59.8177 47.644 60.5677 48.2169 61.5469C48.7898 62.5156 49.0763 63.6198 49.0763 64.8594C49.0763 66.8177 48.519 68.3854 47.4044 69.5625C46.3002 70.7292 44.8315 71.3125 42.9981 71.3125C41.1648 71.3125 39.6908 70.7292 38.5763 69.5625C37.4721 68.3854 36.92 66.8177 36.92 64.8594C36.92 63.6094 37.2013 62.4948 37.7638 61.5156C38.3367 60.526 39.1127 59.7812 40.0919 59.2812C39.2377 58.7812 38.5658 58.0938 38.0763 57.2188C37.5867 56.3333 37.3419 55.3229 37.3419 54.1875C37.3419 52.2708 37.8575 50.75 38.8888 49.625C39.9304 48.5 41.3002 47.9375 42.9981 47.9375C44.6856 47.9375 46.045 48.4948 47.0763 49.6094C48.1179 50.724 48.6388 52.25 48.6388 54.1875ZM46.3106 64.7969C46.3106 63.4948 46.0033 62.4531 45.3888 61.6719C44.7742 60.8802 43.9669 60.4844 42.9669 60.4844C41.946 60.4844 41.1388 60.8802 40.545 61.6719C39.9617 62.4635 39.67 63.5052 39.67 64.7969C39.67 66.1094 39.9565 67.1302 40.5294 67.8594C41.1127 68.5885 41.9356 68.9531 42.9981 68.9531C44.0606 68.9531 44.8783 68.5885 45.4513 67.8594C46.0242 67.1302 46.3106 66.1094 46.3106 64.7969ZM45.8888 54.2344C45.8888 53.0781 45.6179 52.1354 45.0763 51.4062C44.5346 50.6771 43.8419 50.3125 42.9981 50.3125C42.1127 50.3125 41.4096 50.6719 40.8888 51.3906C40.3679 52.1094 40.1075 53.0573 40.1075 54.2344C40.1075 55.4219 40.3731 56.3646 40.9044 57.0625C41.4356 57.7604 42.1335 58.1094 42.9981 58.1094C43.8835 58.1094 44.5867 57.7552 45.1075 57.0469C45.6283 56.3385 45.8888 55.401 45.8888 54.2344ZM54.0331 59.5938L55.0175 48.25H64.9081V50.9219H57.3456L56.8144 57.125C57.7519 56.4688 58.7623 56.1406 59.8456 56.1406C61.6165 56.1406 63.0071 56.8281 64.0175 58.2031C65.0279 59.5781 65.5331 61.4271 65.5331 63.75C65.5331 66.1042 64.981 67.9531 63.8769 69.2969C62.7831 70.6406 61.2779 71.3125 59.3613 71.3125C57.6529 71.3125 56.2623 70.7552 55.1894 69.6406C54.1165 68.526 53.5019 66.9844 53.3456 65.0156H55.9394C56.0956 66.3177 56.4654 67.3021 57.0488 67.9688C57.6425 68.625 58.4133 68.9531 59.3613 68.9531C60.4342 68.9531 61.2727 68.4896 61.8769 67.5625C62.481 66.625 62.7831 65.3646 62.7831 63.7812C62.7831 62.2917 62.455 61.0781 61.7988 60.1406C61.1529 59.2031 60.2779 58.7344 59.1738 58.7344C58.2571 58.7344 57.5227 58.974 56.9706 59.4531L56.2363 60.1875L54.0331 59.5938ZM78.5056 48.2344V50.6875H78.0525C76.2087 50.7292 74.766 51.3542 73.7244 52.5625C72.6827 53.7604 72.0837 55.5677 71.9275 57.9844C72.9379 56.7135 74.2296 56.0781 75.8025 56.0781C77.4796 56.0781 78.8077 56.7708 79.7869 58.1562C80.7765 59.5312 81.2712 61.3385 81.2712 63.5781C81.2712 65.9635 80.7244 67.849 79.6306 69.2344C78.5473 70.6198 77.089 71.3125 75.2556 71.3125C73.4119 71.3125 71.9275 70.4948 70.8025 68.8594C69.6775 67.224 69.115 65.0521 69.115 62.3438V61.2344C69.115 58.1094 69.4535 55.6198 70.1306 53.7656C70.8077 51.9115 71.8025 50.5365 73.115 49.6406C74.4379 48.7344 76.0785 48.2656 78.0369 48.2344H78.5056ZM75.3337 58.4844C74.5837 58.4844 73.891 58.7708 73.2556 59.3438C72.6202 59.9167 72.1619 60.6458 71.8806 61.5312V62.6719C71.8806 64.5156 72.2035 66.0208 72.8494 67.1875C73.5056 68.3438 74.3077 68.9219 75.2556 68.9219C76.2869 68.9219 77.0942 68.4479 77.6775 67.5C78.2608 66.5417 78.5525 65.2812 78.5525 63.7188C78.5525 62.1771 78.2608 60.9219 77.6775 59.9531C77.0942 58.974 76.3129 58.4844 75.3337 58.4844Z" fill="#262121"/>
<path id="Rectangle 1_2" d="M76 21.1892H101V88.7568H1V21.1892H26" stroke="#262121" stroke-width="2"/>
</g>
</g>
</svg>
